<svg id="visual" viewBox="0 0 960 540" width="960" height="540" xmlns="http://www.w3.org/2000/svg" xmlns:xlink="http://www.w3.org/1999/xlink" version="1.1"><rect x="0" y="0" width="960" height="540" fill="#0c1d36"></rect><path d="M0 391L87 332L175 317L262 324L349 332L436 330L524 307L611 328L698 285L785 370L873 325L960 285L960 541L873 541L785 541L698 541L611 541L524 541L436 541L349 541L262 541L175 541L87 541L0 541Z" fill="#5a0ad3"></path><path d="M0 420L87 381L175 322L262 358L349 330L436 369L524 324L611 368L698 320L785 327L873 389L960 412L960 541L873 541L785 541L698 541L611 541L524 541L436 541L349 541L262 541L175 541L87 541L0 541Z" fill="#2727ad"></path><path d="M0 394L87 449L175 401L262 398L349 367L436 435L524 375L611 398L698 385L785 384L873 391L960 376L960 541L873 541L785 541L698 541L611 541L524 541L436 541L349 541L262 541L175 541L87 541L0 541Z" fill="#002982"></path><path d="M0 458L87 438L175 415L262 460L349 449L436 449L524 422L611 424L698 469L785 455L873 475L960 472L960 541L873 541L785 541L698 541L611 541L524 541L436 541L349 541L262 541L175 541L87 541L0 541Z" fill="#002153"></path><path d="M0 491L87 469L175 497L262 491L349 483L436 497L524 469L611 496L698 511L785 508L873 460L960 476L960 541L873 541L785 541L698 541L611 541L524 541L436 541L349 541L262 541L175 541L87 541L0 541Z" fill="#001122"></path></svg>